<svg xmlns="http://www.w3.org/2000/svg" xmlns:xlink="http://www.w3.org/1999/xlink" zoomAndPan="magnify" viewBox="0 152.5 375 70" preserveAspectRatio="xMidYMid meet" version="1.0"><defs><g/><clipPath id="10a016d280"><path d="M 33 165.589844 L 99 165.589844 L 99 207.589844 L 33 207.589844 Z M 33 165.589844 " clip-rule="nonzero"/></clipPath><clipPath id="de5ff98b9a"><path d="M 8.34375 165.589844 L 74 165.589844 L 74 207.589844 L 8.34375 207.589844 Z M 8.34375 165.589844 " clip-rule="nonzero"/></clipPath></defs><g clip-path="url(#10a016d280)"><path fill="#6d28d9" d="M 78.234375 165.707031 C 72.089844 165.59375 66.542969 168.148438 62.667969 172.292969 C 60.9375 174.144531 61.480469 177.148438 63.726562 178.328125 C 65.261719 179.132812 67.164062 178.851562 68.351562 177.585938 C 70.726562 175.054688 74.097656 173.472656 77.839844 173.472656 C 85.125 173.472656 91.011719 179.460938 90.851562 186.78125 C 90.742188 191.667969 87.839844 196.101562 83.4375 198.234375 C 76.816406 201.4375 70.191406 197.226562 64.40625 194.152344 C 56.109375 189.746094 47.8125 185.335938 39.519531 180.929688 C 37.65625 179.941406 35.347656 180.65625 34.367188 182.519531 C 33.402344 184.363281 34.09375 186.636719 35.925781 187.628906 C 38.445312 188.996094 41.527344 190.792969 42.050781 191.070312 C 45.429688 192.839844 48.808594 194.613281 52.1875 196.382812 C 56.355469 198.570312 60.484375 200.820312 64.695312 202.917969 C 68.949219 205.039062 72.980469 207.265625 77.839844 207.265625 C 89.488281 207.265625 98.898438 197.6875 98.617188 185.976562 C 98.351562 174.914062 89.300781 165.914062 78.234375 165.707031 " fill-opacity="1" fill-rule="nonzero"/></g><g clip-path="url(#de5ff98b9a)"><path fill="#050a30" d="M 29.042969 207.261719 C 35.1875 207.378906 40.734375 204.820312 44.609375 200.679688 C 46.34375 198.828125 45.800781 195.820312 43.554688 194.644531 L 43.433594 194.578125 C 41.921875 193.789062 40.09375 194.140625 38.925781 195.382812 C 36.554688 197.914062 33.179688 199.496094 29.4375 199.496094 C 22.152344 199.496094 16.265625 193.511719 16.429688 186.191406 C 16.539062 181.300781 19.441406 176.867188 23.84375 174.738281 C 30.460938 171.535156 37.085938 175.746094 42.875 178.820312 C 51.167969 183.226562 59.464844 187.632812 67.761719 192.039062 C 69.621094 193.027344 71.929688 192.316406 72.910156 190.449219 C 73.875 188.609375 73.183594 186.332031 71.355469 185.339844 C 68.832031 183.976562 65.753906 182.175781 65.226562 181.902344 C 61.847656 180.128906 58.46875 178.359375 55.089844 176.585938 C 50.925781 174.402344 46.792969 172.152344 42.582031 170.050781 C 38.328125 167.933594 34.296875 165.703125 29.4375 165.703125 C 17.789062 165.703125 8.382812 175.285156 8.660156 186.996094 C 8.925781 198.058594 17.980469 207.058594 29.042969 207.261719 " fill-opacity="1" fill-rule="nonzero"/></g><g fill="#000000" fill-opacity="1"><g transform="translate(104.970819, 199.176594)"><g><path d="M 4.703125 -3.21875 C 2.378906 -5.5 1.21875 -8.390625 1.21875 -11.890625 C 1.21875 -15.390625 2.382812 -18.273438 4.71875 -20.546875 C 7.0625 -22.828125 9.925781 -23.96875 13.3125 -23.96875 C 15.882812 -23.96875 18.164062 -23.3125 20.15625 -22 C 22.15625 -20.695312 23.585938 -18.859375 24.453125 -16.484375 L 18.71875 -16.484375 C 17.664062 -18.566406 15.863281 -19.609375 13.3125 -19.609375 C 11.164062 -19.609375 9.421875 -18.898438 8.078125 -17.484375 C 6.734375 -16.078125 6.0625 -14.203125 6.0625 -11.859375 C 6.0625 -9.523438 6.734375 -7.648438 8.078125 -6.234375 C 9.421875 -4.828125 11.164062 -4.125 13.3125 -4.125 C 15.832031 -4.125 17.632812 -5.164062 18.71875 -7.25 L 24.453125 -7.25 C 23.585938 -4.875 22.15625 -3.035156 20.15625 -1.734375 C 18.164062 -0.441406 15.882812 0.203125 13.3125 0.203125 C 9.894531 0.203125 7.023438 -0.9375 4.703125 -3.21875 Z M 4.703125 -3.21875 "/></g></g></g><g fill="#000000" fill-opacity="1"><g transform="translate(130.319463, 199.176594)"><g><path d="M 10.859375 -3.765625 C 12.191406 -3.765625 13.335938 -4.253906 14.296875 -5.234375 C 15.265625 -6.210938 15.75 -7.597656 15.75 -9.390625 C 15.75 -11.191406 15.273438 -12.578125 14.328125 -13.546875 C 13.378906 -14.515625 12.234375 -15 10.890625 -15 C 9.546875 -15 8.410156 -14.515625 7.484375 -13.546875 C 6.554688 -12.578125 6.09375 -11.1875 6.09375 -9.375 C 6.09375 -7.570312 6.554688 -6.1875 7.484375 -5.21875 C 8.410156 -4.25 9.535156 -3.765625 10.859375 -3.765625 Z M 3.984375 -2.40625 C 2.160156 -4.1875 1.25 -6.519531 1.25 -9.40625 C 1.25 -12.300781 2.175781 -14.628906 4.03125 -16.390625 C 5.882812 -18.148438 8.179688 -19.03125 10.921875 -19.03125 C 13.660156 -19.03125 15.957031 -18.148438 17.8125 -16.390625 C 19.664062 -14.628906 20.59375 -12.300781 20.59375 -9.40625 C 20.59375 -6.519531 19.660156 -4.1875 17.796875 -2.40625 C 15.929688 -0.625 13.617188 0.265625 10.859375 0.265625 C 8.109375 0.265625 5.816406 -0.625 3.984375 -2.40625 Z M 3.984375 -2.40625 "/></g></g></g><g fill="#000000" fill-opacity="1"><g transform="translate(151.471491, 199.176594)"><g><path d="M 7.3125 -18.765625 L 7.3125 -15.953125 C 8.507812 -18.003906 10.453125 -19.03125 13.140625 -19.03125 C 15.285156 -19.03125 17.035156 -18.320312 18.390625 -16.90625 C 19.742188 -15.5 20.421875 -13.539062 20.421875 -11.03125 L 20.421875 0 L 15.671875 0 L 15.671875 -10.359375 C 15.671875 -11.828125 15.296875 -12.945312 14.546875 -13.71875 C 13.804688 -14.5 12.789062 -14.890625 11.5 -14.890625 C 10.21875 -14.890625 9.195312 -14.5 8.4375 -13.71875 C 7.6875 -12.945312 7.3125 -11.828125 7.3125 -10.359375 L 7.3125 0 L 2.546875 0 L 2.546875 -18.765625 Z M 7.3125 -18.765625 "/></g></g></g><g fill="#000000" fill-opacity="1"><g transform="translate(173.571135, 199.176594)"><g><path d="M 9.8125 -4 L 12.09375 -4 L 12.09375 0 L 9.078125 0 C 7.160156 0 5.679688 -0.4375 4.640625 -1.3125 C 3.597656 -2.195312 3.078125 -3.65625 3.078125 -5.6875 L 3.078125 -14.859375 L 1.078125 -14.859375 L 1.078125 -18.765625 L 3.078125 -18.765625 L 3.078125 -23.390625 L 7.859375 -23.390625 L 7.859375 -18.765625 L 12.046875 -18.765625 L 12.046875 -14.859375 L 7.859375 -14.859375 L 7.859375 -5.6875 C 7.859375 -5.082031 8.003906 -4.648438 8.296875 -4.390625 C 8.585938 -4.128906 9.09375 -4 9.8125 -4 Z M 9.8125 -4 "/></g></g></g><g fill="#000000" fill-opacity="1"><g transform="translate(186.160693, 199.176594)"><g><path d="M 7.828125 -23.53125 C 7.828125 -22.71875 7.539062 -22.03125 6.96875 -21.46875 C 6.40625 -20.90625 5.722656 -20.625 4.921875 -20.625 C 4.117188 -20.625 3.4375 -20.90625 2.875 -21.46875 C 2.3125 -22.03125 2.03125 -22.71875 2.03125 -23.53125 C 2.03125 -24.34375 2.3125 -25.03125 2.875 -25.59375 C 3.4375 -26.15625 4.117188 -26.4375 4.921875 -26.4375 C 5.722656 -26.4375 6.40625 -26.15625 6.96875 -25.59375 C 7.539062 -25.03125 7.828125 -24.34375 7.828125 -23.53125 Z M 2.546875 0 L 2.546875 -18.765625 L 7.3125 -18.765625 L 7.3125 0 Z M 2.546875 0 "/></g></g></g><g fill="#000000" fill-opacity="1"><g transform="translate(195.332028, 199.176594)"><g><path d="M 7.3125 -18.765625 L 7.3125 -15.953125 C 8.507812 -18.003906 10.453125 -19.03125 13.140625 -19.03125 C 15.285156 -19.03125 17.035156 -18.320312 18.390625 -16.90625 C 19.742188 -15.5 20.421875 -13.539062 20.421875 -11.03125 L 20.421875 0 L 15.671875 0 L 15.671875 -10.359375 C 15.671875 -11.828125 15.296875 -12.945312 14.546875 -13.71875 C 13.804688 -14.5 12.789062 -14.890625 11.5 -14.890625 C 10.21875 -14.890625 9.195312 -14.5 8.4375 -13.71875 C 7.6875 -12.945312 7.3125 -11.828125 7.3125 -10.359375 L 7.3125 0 L 2.546875 0 L 2.546875 -18.765625 Z M 7.3125 -18.765625 "/></g></g></g><g fill="#000000" fill-opacity="1"><g transform="translate(217.431672, 199.176594)"><g><path d="M 15.46875 -18.765625 L 20.25 -18.765625 L 20.25 0 L 15.46875 0 L 15.46875 -2.84375 C 14.269531 -0.789062 12.316406 0.234375 9.609375 0.234375 C 7.492188 0.234375 5.757812 -0.46875 4.40625 -1.875 C 3.050781 -3.289062 2.375 -5.25 2.375 -7.75 L 2.375 -18.765625 L 7.109375 -18.765625 L 7.109375 -8.4375 C 7.109375 -6.96875 7.476562 -5.835938 8.21875 -5.046875 C 8.96875 -4.253906 9.984375 -3.859375 11.265625 -3.859375 C 12.554688 -3.859375 13.578125 -4.253906 14.328125 -5.046875 C 15.085938 -5.835938 15.46875 -6.96875 15.46875 -8.4375 Z M 15.46875 -18.765625 "/></g></g></g><g fill="#000000" fill-opacity="1"><g transform="translate(239.531322, 199.176594)"><g><path d="M 15.46875 -18.765625 L 20.25 -18.765625 L 20.25 0 L 15.46875 0 L 15.46875 -2.84375 C 14.269531 -0.789062 12.316406 0.234375 9.609375 0.234375 C 7.492188 0.234375 5.757812 -0.46875 4.40625 -1.875 C 3.050781 -3.289062 2.375 -5.25 2.375 -7.75 L 2.375 -18.765625 L 7.109375 -18.765625 L 7.109375 -8.4375 C 7.109375 -6.96875 7.476562 -5.835938 8.21875 -5.046875 C 8.96875 -4.253906 9.984375 -3.859375 11.265625 -3.859375 C 12.554688 -3.859375 13.578125 -4.253906 14.328125 -5.046875 C 15.085938 -5.835938 15.46875 -6.96875 15.46875 -8.4375 Z M 15.46875 -18.765625 "/></g></g></g><g fill="#000000" fill-opacity="1"><g transform="translate(261.630972, 199.176594)"><g><path d="M 7.3125 -18.765625 L 7.3125 -15.953125 C 8.507812 -18.003906 10.453125 -19.03125 13.140625 -19.03125 C 14.554688 -19.03125 15.820312 -18.703125 16.9375 -18.046875 C 18.0625 -17.390625 18.925781 -16.453125 19.53125 -15.234375 C 20.1875 -16.410156 21.082031 -17.335938 22.21875 -18.015625 C 23.363281 -18.691406 24.648438 -19.03125 26.078125 -19.03125 C 28.304688 -19.03125 30.101562 -18.328125 31.46875 -16.921875 C 32.832031 -15.523438 33.515625 -13.5625 33.515625 -11.03125 L 33.515625 0 L 28.78125 0 L 28.78125 -10.359375 C 28.78125 -11.828125 28.40625 -12.945312 27.65625 -13.71875 C 26.914062 -14.5 25.898438 -14.890625 24.609375 -14.890625 C 23.328125 -14.890625 22.304688 -14.5 21.546875 -13.71875 C 20.796875 -12.945312 20.421875 -11.828125 20.421875 -10.359375 L 20.421875 0 L 15.671875 0 L 15.671875 -10.359375 C 15.671875 -11.828125 15.296875 -12.945312 14.546875 -13.71875 C 13.804688 -14.5 12.789062 -14.890625 11.5 -14.890625 C 10.21875 -14.890625 9.195312 -14.5 8.4375 -13.71875 C 7.6875 -12.945312 7.3125 -11.828125 7.3125 -10.359375 L 7.3125 0 L 2.546875 0 L 2.546875 -18.765625 Z M 7.3125 -18.765625 "/></g></g></g><g fill="#000000" fill-opacity="1"><g transform="translate(296.828143, 199.176594)"><g><path d="M 4.703125 -3.21875 C 2.378906 -5.5 1.21875 -8.390625 1.21875 -11.890625 C 1.21875 -15.390625 2.382812 -18.273438 4.71875 -20.546875 C 7.0625 -22.828125 9.925781 -23.96875 13.3125 -23.96875 C 15.882812 -23.96875 18.164062 -23.3125 20.15625 -22 C 22.15625 -20.695312 23.585938 -18.859375 24.453125 -16.484375 L 18.71875 -16.484375 C 17.664062 -18.566406 15.863281 -19.609375 13.3125 -19.609375 C 11.164062 -19.609375 9.421875 -18.898438 8.078125 -17.484375 C 6.734375 -16.078125 6.0625 -14.203125 6.0625 -11.859375 C 6.0625 -9.523438 6.734375 -7.648438 8.078125 -6.234375 C 9.421875 -4.828125 11.164062 -4.125 13.3125 -4.125 C 15.832031 -4.125 17.632812 -5.164062 18.71875 -7.25 L 24.453125 -7.25 C 23.585938 -4.875 22.15625 -3.035156 20.15625 -1.734375 C 18.164062 -0.441406 15.882812 0.203125 13.3125 0.203125 C 9.894531 0.203125 7.023438 -0.9375 4.703125 -3.21875 Z M 4.703125 -3.21875 "/></g></g></g><g fill="#000000" fill-opacity="1"><g transform="translate(322.176782, 199.176594)"><g><path d="M 10.859375 -3.765625 C 12.191406 -3.765625 13.335938 -4.253906 14.296875 -5.234375 C 15.265625 -6.210938 15.75 -7.597656 15.75 -9.390625 C 15.75 -11.191406 15.273438 -12.578125 14.328125 -13.546875 C 13.378906 -14.515625 12.234375 -15 10.890625 -15 C 9.546875 -15 8.410156 -14.515625 7.484375 -13.546875 C 6.554688 -12.578125 6.09375 -11.1875 6.09375 -9.375 C 6.09375 -7.570312 6.554688 -6.1875 7.484375 -5.21875 C 8.410156 -4.25 9.535156 -3.765625 10.859375 -3.765625 Z M 3.984375 -2.40625 C 2.160156 -4.1875 1.25 -6.519531 1.25 -9.40625 C 1.25 -12.300781 2.175781 -14.628906 4.03125 -16.390625 C 5.882812 -18.148438 8.179688 -19.03125 10.921875 -19.03125 C 13.660156 -19.03125 15.957031 -18.148438 17.8125 -16.390625 C 19.664062 -14.628906 20.59375 -12.300781 20.59375 -9.40625 C 20.59375 -6.519531 19.660156 -4.1875 17.796875 -2.40625 C 15.929688 -0.625 13.617188 0.265625 10.859375 0.265625 C 8.109375 0.265625 5.816406 -0.625 3.984375 -2.40625 Z M 3.984375 -2.40625 "/></g></g></g><g fill="#000000" fill-opacity="1"><g transform="translate(343.328804, 199.176594)"><g><path d="M 7.3125 -18.765625 L 7.3125 -15.953125 C 8.507812 -18.003906 10.453125 -19.03125 13.140625 -19.03125 C 15.285156 -19.03125 17.035156 -18.320312 18.390625 -16.90625 C 19.742188 -15.5 20.421875 -13.539062 20.421875 -11.03125 L 20.421875 0 L 15.671875 0 L 15.671875 -10.359375 C 15.671875 -11.828125 15.296875 -12.945312 14.546875 -13.71875 C 13.804688 -14.5 12.789062 -14.890625 11.5 -14.890625 C 10.21875 -14.890625 9.195312 -14.5 8.4375 -13.71875 C 7.6875 -12.945312 7.3125 -11.828125 7.3125 -10.359375 L 7.3125 0 L 2.546875 0 L 2.546875 -18.765625 Z M 7.3125 -18.765625 "/></g></g></g></svg>