<svg xmlns="http://www.w3.org/2000/svg" viewBox="0 100 375 175" preserveAspectRatio="xMidYMid meet" version="1.0" class="mx-auto h-auto w-full max-w-xl px-20"><defs><clipPath id="299bae4482"><path d="M 105 101.015625 L 374 101.015625 L 374 274 L 105 274 Z M 105 101.015625 " clip-rule="nonzero"></path></clipPath><clipPath id="9c9e0661f9"><path d="M 1 101.015625 L 270 101.015625 L 270 274 L 1 274 Z M 1 101.015625 " clip-rule="nonzero"></path></clipPath></defs><g clip-path="url(#299bae4482)"><path fill="#6d28d9" d="M 289.273438 101.5 C 263.839844 101.027344 240.878906 111.605469 224.84375 128.75 C 217.671875 136.417969 219.914062 148.855469 229.214844 153.730469 C 235.570312 157.0625 243.453125 155.90625 248.363281 150.671875 C 258.1875 140.195312 272.148438 133.648438 287.644531 133.648438 C 317.792969 133.648438 342.15625 158.421875 341.484375 188.722656 C 341.035156 208.953125 329.019531 227.308594 310.804688 236.121094 C 283.402344 249.382812 255.984375 231.957031 232.03125 219.230469 C 197.691406 200.988281 163.355469 182.75 129.019531 164.507812 C 121.316406 160.417969 111.761719 163.367188 107.707031 171.09375 C 103.707031 178.714844 106.570312 188.132812 114.140625 192.234375 C 124.585938 197.890625 137.332031 205.332031 139.5 206.46875 C 153.492188 213.804688 167.476562 221.136719 181.464844 228.472656 C 198.707031 237.511719 215.808594 246.828125 233.230469 255.515625 C 250.839844 264.296875 267.527344 273.515625 287.644531 273.515625 C 335.851562 273.515625 374.796875 233.859375 373.632812 185.390625 C 372.539062 139.597656 335.070312 102.347656 289.273438 101.5 " fill-opacity="1" fill-rule="nonzero"></path></g><g clip-path="url(#9c9e0661f9)"><path fill="#050a30" d="M 85.664062 273.5 C 111.097656 273.972656 134.058594 263.394531 150.09375 246.25 C 157.261719 238.582031 155.023438 226.144531 145.722656 221.269531 L 145.21875 221.003906 C 138.972656 217.730469 131.394531 219.183594 126.574219 224.328125 C 116.75 234.804688 102.789062 241.351562 87.292969 241.351562 C 57.144531 241.351562 32.78125 216.578125 33.453125 186.277344 C 33.902344 166.046875 45.917969 147.691406 64.132812 138.878906 C 91.535156 125.617188 118.953125 143.042969 142.90625 155.769531 C 177.246094 174.011719 211.582031 192.25 245.917969 210.492188 C 253.617188 214.582031 263.175781 211.632812 267.230469 203.90625 C 271.230469 196.285156 268.363281 186.867188 260.792969 182.765625 C 250.351562 177.109375 237.605469 169.667969 235.433594 168.53125 C 221.445312 161.195312 207.460938 153.863281 193.472656 146.527344 C 176.230469 137.488281 159.128906 128.171875 141.707031 119.484375 C 124.097656 110.703125 107.40625 101.484375 87.292969 101.484375 C 39.085938 101.484375 0.140625 141.140625 1.300781 189.609375 C 2.398438 235.402344 39.867188 272.652344 85.664062 273.5 " fill-opacity="1" fill-rule="nonzero"></path></g></svg>